<?xml version="1.0" encoding="UTF-8"?>
<!DOCTYPE svg PUBLIC "-//W3C//DTD SVG 1.1//EN" "http://www.w3.org/Graphics/SVG/1.1/DTD/svg11.dtd">
<svg xmlns="http://www.w3.org/2000/svg" version="1.1" width="512px" height="512px" style="shape-rendering:geometricPrecision; text-rendering:geometricPrecision; image-rendering:optimizeQuality; fill-rule:evenodd; clip-rule:evenodd" xmlns:xlink="http://www.w3.org/1999/xlink">
<g><path style="opacity:0.976" fill="#d2000a" d="M 75.5,-0.5 C 84.8333,-0.5 94.1667,-0.5 103.5,-0.5C 145.153,8.32025 170.32,33.6536 179,75.5C 181.806,95.132 178.806,113.799 170,131.5C 147,166.5 124,201.5 101,236.5C 93.3333,241.833 85.6667,241.833 78,236.5C 56.7259,203.562 35.0592,170.895 13,138.5C 6.40714,127.541 1.90714,115.875 -0.5,103.5C -0.5,94.1667 -0.5,84.8333 -0.5,75.5C 8.5,33.8333 33.8333,8.5 75.5,-0.5 Z M 80.5,45.5 C 107.542,43.0668 125.042,54.7335 133,80.5C 135.92,107.564 124.42,125.064 98.5,133C 71.4359,135.92 53.9359,124.42 46,98.5C 43.2868,71.4112 54.7868,53.7445 80.5,45.5 Z"/></g>
<g><path style="opacity:0.983" fill="#49a41f" d="M 511.5,321.5 C 511.5,327.5 511.5,333.5 511.5,339.5C 506.039,354.804 496.039,366.304 481.5,374C 448.424,389.469 413.757,394.469 377.5,389C 367.258,387.44 357.258,384.94 347.5,381.5C 326.833,393.5 306.167,405.5 285.5,417.5C 302.981,435.51 305.147,455.177 292,476.5C 276.864,492.656 258.364,502.989 236.5,507.5C 229.382,508.961 222.382,510.294 215.5,511.5C 202.167,511.5 188.833,511.5 175.5,511.5C 152.941,509.105 131.941,501.938 112.5,490C 95.1094,478.387 87.6094,462.221 90,441.5C 95.1445,426.02 104.978,414.52 119.5,407C 149.911,392.598 181.911,387.265 215.5,391C 228.825,392.586 241.825,395.252 254.5,399C 274.833,387.167 295.167,375.333 315.5,363.5C 303.026,352.079 298.36,338.079 301.5,321.5C 260.033,310.383 218.366,299.716 176.5,289.5C 159.303,313.781 135.636,327.281 105.5,330C 72.0174,334.381 42.0174,326.381 15.5,306C 7.70827,298.572 2.37494,289.738 -0.5,279.5C -0.5,273.5 -0.5,267.5 -0.5,261.5C 5.478,244.181 16.8113,231.514 33.5,223.5C 40.8517,232.704 47.685,242.37 54,252.5C 77.096,275.744 100.429,276.078 124,253.5C 130.649,243.035 137.816,233.035 145.5,223.5C 160.723,230.891 171.723,242.391 178.5,258C 225.919,269.521 273.252,281.355 320.5,293.5C 337.678,281.715 356.678,274.549 377.5,272C 410.534,267.13 442.534,270.796 473.5,283C 491.8,290.466 504.467,303.299 511.5,321.5 Z"/></g>
</svg>
